<svg width="114" height="52" viewBox="0 0 114 52" fill="none" xmlns="http://www.w3.org/2000/svg">
<rect width="113" height="50" transform="translate(1 1)" fill="#E3DACC"/>
<path d="M63.1563 36.02C63.8096 36.5533 64.1363 37.3733 64.1363 38.48V44C64.1363 44.7067 64.4429 45.06 65.0563 45.06C65.2963 45.06 65.5496 45 65.8163 44.88L65.8563 44.96C65.3496 45.76 64.6496 46.16 63.7563 46.16C63.2496 46.16 62.8363 46 62.5163 45.68C62.1963 45.3867 61.9963 44.9733 61.9163 44.44C61.5163 44.9467 61.0563 45.3533 60.5363 45.66C59.9496 45.9933 59.3629 46.16 58.7763 46.16C58.0563 46.16 57.4363 45.9333 56.9163 45.48C56.4096 45.0133 56.1563 44.4133 56.1563 43.68C56.1563 42.9333 56.4629 42.2933 57.0763 41.76C57.5696 41.3733 58.2296 41.0333 59.0563 40.74L61.8963 39.74V37.98C61.8963 37.3 61.7896 36.7667 61.5763 36.38C61.2696 35.8733 60.8229 35.62 60.2363 35.62C59.7029 35.62 59.3096 35.8267 59.0563 36.24C58.8296 36.56 58.7163 37.0133 58.7163 37.6C58.7163 38.1333 58.7763 38.54 58.8963 38.82L57.5563 39C57.3029 38.9333 57.0963 38.78 56.9363 38.54C56.7896 38.3133 56.7163 38.0667 56.7163 37.8C56.7163 36.9867 57.1763 36.34 58.0963 35.86C58.8429 35.5 59.6563 35.32 60.5363 35.32C61.6963 35.32 62.5696 35.5533 63.1563 36.02ZM58.7363 44.42C59.0563 44.8067 59.5029 45 60.0763 45C60.7963 45 61.4029 44.7533 61.8963 44.26V40L59.8363 40.86C59.3029 41.1 58.9229 41.3667 58.6963 41.66C58.4163 42.02 58.2763 42.4733 58.2763 43.02C58.2763 43.6067 58.4296 44.0733 58.7363 44.42ZM70.5144 33.5C70.2477 33.7667 69.9077 33.9 69.4944 33.9C69.0944 33.9 68.7544 33.76 68.4744 33.48C68.2077 33.2133 68.0744 32.8867 68.0744 32.5C68.0744 32.1 68.2077 31.7667 68.4744 31.5C68.7544 31.22 69.0944 31.08 69.4944 31.08C69.9077 31.08 70.2544 31.22 70.5344 31.5C70.801 31.7667 70.9344 32.1 70.9344 32.5C70.9344 32.8867 70.7944 33.22 70.5144 33.5ZM67.1144 36.36L70.5944 35.32H70.6744V44.86C70.6744 45.2867 70.821 45.5467 71.1144 45.64C71.261 45.72 71.581 45.7667 72.0744 45.78V46H67.0544V45.78C67.521 45.7667 67.841 45.72 68.0144 45.64C68.2944 45.5467 68.4344 45.2867 68.4344 44.86V37.2L67.1144 36.44V36.36ZM73.6213 31.38L77.1013 30.34H77.1813V44.86C77.1813 45.2867 77.3213 45.5467 77.6013 45.64C77.7746 45.72 78.0946 45.7667 78.5612 45.78V46H73.5613V45.78C74.0279 45.7667 74.3479 45.72 74.5213 45.64C74.8013 45.5467 74.9413 45.2867 74.9413 44.86V32.22L73.6213 31.46V31.38ZM84.5213 46H81.8613L77.4213 40.4L80.7813 37.18C80.9013 37.0333 81.0213 36.9 81.1413 36.78C81.2746 36.6333 81.3413 36.48 81.3413 36.32C81.3413 36.1067 81.1279 35.9467 80.7013 35.84C80.4746 35.7733 80.1813 35.7333 79.8213 35.72V35.52H84.0213V35.72C83.1679 35.8133 82.3879 36.1933 81.6813 36.86L79.1813 39.22L84.5213 45.92V46ZM95.1959 35.34H95.2759L95.1959 37.54V44.32C95.1959 44.64 95.2359 44.8533 95.3159 44.96C95.3959 45.08 95.5893 45.1667 95.8959 45.22C96.2959 45.2733 96.5226 45.3 96.5759 45.3V45.48L92.9559 46.2H92.8759L92.9559 44.32C92.5026 44.8533 91.9959 45.2867 91.4359 45.62C90.8226 46.0067 90.1826 46.2 89.5159 46.2C88.5826 46.2 87.8693 45.9 87.3759 45.3C86.9359 44.74 86.7159 43.98 86.7159 43.02V37.26C86.7159 36.9933 86.6759 36.7867 86.5959 36.64C86.5026 36.4933 86.3159 36.38 86.0359 36.3C86.0093 36.2867 85.7893 36.24 85.3759 36.16V36L88.9759 35.34H89.0559L88.9559 37.62V42.74C88.9559 44.18 89.5759 44.9 90.8159 44.9C91.2159 44.9 91.5959 44.8333 91.9559 44.7C92.3826 44.5533 92.7159 44.3667 92.9559 44.14V37.26C92.9559 36.98 92.9159 36.7667 92.8359 36.62C92.7559 36.4867 92.5759 36.38 92.2959 36.3C92.2693 36.2867 92.0493 36.24 91.6359 36.16V36L95.1959 35.34ZM101.561 45.54V49.08C101.561 49.3867 101.661 49.6067 101.861 49.74C101.981 49.8067 102.221 49.8733 102.581 49.94C102.607 49.94 102.694 49.9467 102.841 49.96C103.001 49.9733 103.174 49.9933 103.361 50.02V50.24H97.9408V50.02C98.4074 50.0067 98.7274 49.96 98.9008 49.88C99.1808 49.7867 99.3208 49.5267 99.3208 49.1V37.2L98.0008 36.44V36.36L101.561 35.32H101.641L101.561 37.28C101.974 36.68 102.467 36.2067 103.041 35.86C103.694 35.5 104.354 35.32 105.021 35.32C106.287 35.32 107.281 35.82 108.001 36.82C108.587 37.7267 108.881 38.8333 108.881 40.14C108.881 41.2067 108.681 42.18 108.281 43.06C107.854 44.02 107.234 44.7733 106.421 45.32C105.594 45.9067 104.654 46.2 103.601 46.2C103.241 46.2 102.881 46.1467 102.521 46.04C102.134 45.9333 101.814 45.7667 101.561 45.54ZM101.981 45.04C102.327 45.6133 102.847 45.9 103.541 45.9C104.234 45.9 104.854 45.6067 105.401 45.02C105.827 44.5267 106.147 43.9 106.361 43.14C106.534 42.4467 106.621 41.7467 106.621 41.04C106.621 39.8667 106.421 38.8867 106.021 38.1C105.461 37.1133 104.647 36.62 103.581 36.62C102.754 36.62 102.081 36.9 101.561 37.46V43.24C101.561 43.9467 101.701 44.5467 101.981 45.04Z" fill="#3B3B3B"/>
<path d="M1 1H51V51H1V1Z" fill="#E3DACC"/>
<path d="M27.1877 26.05C27.0477 26.31 26.9777 26.75 26.9777 27.37V34.81H37.5077V27.37C37.5077 26.75 37.4377 26.31 37.2977 26.05C37.0977 25.73 36.7277 25.52 36.1877 25.42C36.1077 25.4 36.0077 25.38 35.8877 25.36C35.7677 25.34 35.6077 25.32 35.4077 25.3C35.2077 25.28 35.0277 25.26 34.8677 25.24V24.94H42.9677V25.24C42.8077 25.26 42.6277 25.28 42.4277 25.3C42.2277 25.32 42.0677 25.34 41.9477 25.36C41.8277 25.38 41.7177 25.4 41.6177 25.42C41.0977 25.54 40.7377 25.75 40.5377 26.05C40.3977 26.31 40.3277 26.75 40.3277 27.37V43.57C40.3277 44.19 40.3977 44.63 40.5377 44.89C40.7377 45.21 41.1077 45.42 41.6477 45.52C41.7277 45.54 41.8277 45.56 41.9477 45.58C42.0677 45.6 42.2277 45.62 42.4277 45.64C42.6277 45.66 42.8077 45.68 42.9677 45.7V46H34.8677V45.7C35.0277 45.68 35.2077 45.66 35.4077 45.64C35.6077 45.62 35.7677 45.6 35.8877 45.58C36.0077 45.56 36.1177 45.54 36.2177 45.52C36.7377 45.4 37.0977 45.19 37.2977 44.89C37.4377 44.63 37.5077 44.19 37.5077 43.57V35.35H26.9777V43.57C26.9777 44.19 27.0477 44.63 27.1877 44.89C27.3877 45.21 27.7577 45.42 28.2977 45.52C28.3777 45.54 28.4777 45.56 28.5977 45.58C28.7177 45.6 28.8777 45.62 29.0777 45.64C29.2777 45.66 29.4577 45.68 29.6177 45.7V46H21.5177V45.7C21.6777 45.68 21.8577 45.66 22.0577 45.64C22.2577 45.62 22.4177 45.6 22.5377 45.58C22.6577 45.56 22.7677 45.54 22.8677 45.52C23.3877 45.4 23.7477 45.19 23.9477 44.89C24.0877 44.63 24.1577 44.19 24.1577 43.57V27.37C24.1577 26.75 24.0877 26.31 23.9477 26.05C23.7477 25.73 23.3777 25.52 22.8377 25.42C22.7577 25.4 22.6577 25.38 22.5377 25.36C22.4177 25.34 22.2577 25.32 22.0577 25.3C21.8577 25.28 21.6777 25.26 21.5177 25.24V24.94H29.6177V25.24C29.4577 25.26 29.2777 25.28 29.0777 25.3C28.8777 25.32 28.7177 25.34 28.5977 25.36C28.4777 25.38 28.3677 25.4 28.2677 25.42C27.7477 25.54 27.3877 25.75 27.1877 26.05Z" fill="#3B3B3B"/>
<path d="M47.0415 47.3125C47.3415 46.9375 47.5227 46.5 47.5852 46H47.0415C46.779 45.9375 46.5602 45.8187 46.3852 45.6437C46.2102 45.4688 46.1227 45.2375 46.1227 44.95C46.1227 44.6 46.2352 44.325 46.4602 44.125C46.6727 43.9125 46.9477 43.8062 47.2852 43.8062C47.6727 43.8062 47.9852 43.9625 48.2227 44.275C48.4102 44.5875 48.504 44.9375 48.504 45.325C48.504 46.0875 48.2477 46.7375 47.7352 47.275C47.2102 47.8 46.579 48.1 45.8415 48.175V48.0813C46.3165 47.9313 46.7165 47.675 47.0415 47.3125Z" fill="#3B3B3B"/>
<path d="M51.25 0.75V51.25H0.75V0.75H51.25Z" stroke="#3B3B3B" stroke-width="0.5"/>
</svg>
