<svg width="40" height="42" viewBox="0 0 40 42" fill="none" xmlns="http://www.w3.org/2000/svg">
<rect x="0.75" y="0.75" width="38.5" height="40.0294" fill="#E3DACC" stroke="#3B3B3B" stroke-width="0.5"/>
<path d="M20.7002 20.8518C20.5882 21.0598 20.5322 21.4118 20.5322 21.9078V27.8598H28.9562V21.9078C28.9562 21.4118 28.9002 21.0598 28.7882 20.8518C28.6282 20.5958 28.3322 20.4278 27.9002 20.3478C27.8362 20.3318 27.7562 20.3158 27.6602 20.2998C27.5642 20.2838 27.4362 20.2678 27.2762 20.2518C27.1162 20.2358 26.9722 20.2198 26.8442 20.2038V19.9638H33.3242V20.2038C33.1962 20.2198 33.0522 20.2358 32.8922 20.2518C32.7322 20.2678 32.6042 20.2838 32.5082 20.2998C32.4122 20.3158 32.3242 20.3318 32.2442 20.3478C31.8282 20.4438 31.5402 20.6118 31.3802 20.8518C31.2682 21.0598 31.2122 21.4118 31.2122 21.9078V34.8678C31.2122 35.3638 31.2682 35.7158 31.3802 35.9238C31.5402 36.1798 31.8362 36.3478 32.2682 36.4278C32.3322 36.4438 32.4122 36.4598 32.5082 36.4758C32.6042 36.4918 32.7322 36.5078 32.8922 36.5238C33.0522 36.5398 33.1962 36.5558 33.3242 36.5718V36.8118H26.8442V36.5718C26.9722 36.5558 27.1162 36.5398 27.2762 36.5238C27.4362 36.5078 27.5642 36.4918 27.6602 36.4758C27.7562 36.4598 27.8442 36.4438 27.9242 36.4278C28.3402 36.3318 28.6282 36.1638 28.7882 35.9238C28.9002 35.7158 28.9562 35.3638 28.9562 34.8678V28.2918H20.5322V34.8678C20.5322 35.3638 20.5882 35.7158 20.7002 35.9238C20.8602 36.1798 21.1562 36.3478 21.5882 36.4278C21.6522 36.4438 21.7322 36.4598 21.8282 36.4758C21.9242 36.4918 22.0522 36.5078 22.2122 36.5238C22.3722 36.5398 22.5162 36.5558 22.6442 36.5718V36.8118H16.1642V36.5718C16.2922 36.5558 16.4362 36.5398 16.5962 36.5238C16.7562 36.5078 16.8842 36.4918 16.9802 36.4758C17.0762 36.4598 17.1642 36.4438 17.2442 36.4278C17.6602 36.3318 17.9482 36.1638 18.1082 35.9238C18.2202 35.7158 18.2762 35.3638 18.2762 34.8678V21.9078C18.2762 21.4118 18.2202 21.0598 18.1082 20.8518C17.9482 20.5958 17.6522 20.4278 17.2202 20.3478C17.1562 20.3318 17.0762 20.3158 16.9802 20.2998C16.8842 20.2838 16.7562 20.2678 16.5962 20.2518C16.4362 20.2358 16.2922 20.2198 16.1642 20.2038V19.9638H22.6442V20.2038C22.5162 20.2198 22.3722 20.2358 22.2122 20.2518C22.0522 20.2678 21.9242 20.2838 21.8282 20.2998C21.7322 20.3158 21.6442 20.3318 21.5642 20.3478C21.1482 20.4438 20.8602 20.6118 20.7002 20.8518Z" fill="#3B3B3B"/>
<path d="M35.9832 36.8147C36.2232 36.5147 36.3682 36.1647 36.4182 35.7647H35.9832C35.7732 35.7147 35.5982 35.6197 35.4582 35.4797C35.3182 35.3397 35.2482 35.1547 35.2482 34.9247C35.2482 34.6447 35.3382 34.4247 35.5182 34.2647C35.6882 34.0947 35.9082 34.0097 36.1782 34.0097C36.4882 34.0097 36.7382 34.1347 36.9282 34.3847C37.0782 34.6347 37.1532 34.9147 37.1532 35.2247C37.1532 35.8347 36.9482 36.3547 36.5382 36.7847C36.1182 37.2047 35.6132 37.4447 35.0232 37.5047V37.4297C35.4032 37.3097 35.7232 37.1047 35.9832 36.8147Z" fill="#3B3B3B"/>
</svg>
