<svg width="92" height="44" viewBox="0 0 92 44" fill="none" xmlns="http://www.w3.org/2000/svg">
<rect x="0.75" y="0.75" width="40.5" height="40.5" fill="#E3DACC" stroke="#3B3B3B" stroke-width="0.5"/>
<path d="M21.9502 21.04C21.8382 21.248 21.7822 21.6 21.7822 22.096V28.048H30.2062V22.096C30.2062 21.6 30.1502 21.248 30.0382 21.04C29.8782 20.784 29.5822 20.616 29.1502 20.536C29.0862 20.52 29.0062 20.504 28.9102 20.488C28.8142 20.472 28.6862 20.456 28.5262 20.44C28.3662 20.424 28.2222 20.408 28.0942 20.392V20.152H34.5742V20.392C34.4462 20.408 34.3022 20.424 34.1422 20.44C33.9822 20.456 33.8542 20.472 33.7582 20.488C33.6622 20.504 33.5742 20.52 33.4942 20.536C33.0782 20.632 32.7902 20.8 32.6302 21.04C32.5182 21.248 32.4622 21.6 32.4622 22.096V35.056C32.4622 35.552 32.5182 35.904 32.6302 36.112C32.7902 36.368 33.0862 36.536 33.5182 36.616C33.5822 36.632 33.6622 36.648 33.7582 36.664C33.8542 36.68 33.9822 36.696 34.1422 36.712C34.3022 36.728 34.4462 36.744 34.5742 36.76V37H28.0942V36.76C28.2222 36.744 28.3662 36.728 28.5262 36.712C28.6862 36.696 28.8142 36.68 28.9102 36.664C29.0062 36.648 29.0942 36.632 29.1742 36.616C29.5902 36.52 29.8782 36.352 30.0382 36.112C30.1502 35.904 30.2062 35.552 30.2062 35.056V28.48H21.7822V35.056C21.7822 35.552 21.8382 35.904 21.9502 36.112C22.1102 36.368 22.4062 36.536 22.8382 36.616C22.9022 36.632 22.9822 36.648 23.0782 36.664C23.1742 36.68 23.3022 36.696 23.4622 36.712C23.6222 36.728 23.7662 36.744 23.8942 36.76V37H17.4142V36.76C17.5422 36.744 17.6862 36.728 17.8462 36.712C18.0062 36.696 18.1342 36.68 18.2302 36.664C18.3262 36.648 18.4142 36.632 18.4942 36.616C18.9102 36.52 19.1982 36.352 19.3582 36.112C19.4702 35.904 19.5262 35.552 19.5262 35.056V22.096C19.5262 21.6 19.4702 21.248 19.3582 21.04C19.1982 20.784 18.9022 20.616 18.4702 20.536C18.4062 20.52 18.3262 20.504 18.2302 20.488C18.1342 20.472 18.0062 20.456 17.8462 20.44C17.6862 20.424 17.5422 20.408 17.4142 20.392V20.152H23.8942V20.392C23.7662 20.408 23.6222 20.424 23.4622 20.44C23.3022 20.456 23.1742 20.472 23.0782 20.488C22.9822 20.504 22.8942 20.52 22.8142 20.536C22.3982 20.632 22.1102 20.8 21.9502 21.04Z" fill="#3B3B3B"/>
<path d="M37.8332 38.05C38.0732 37.75 38.2182 37.4 38.2682 37H37.8332C37.6232 36.95 37.4482 36.855 37.3082 36.715C37.1682 36.575 37.0982 36.39 37.0982 36.16C37.0982 35.88 37.1882 35.66 37.3682 35.5C37.5382 35.33 37.7582 35.245 38.0282 35.245C38.3382 35.245 38.5882 35.37 38.7782 35.62C38.9282 35.87 39.0032 36.15 39.0032 36.46C39.0032 37.07 38.7982 37.59 38.3882 38.02C37.9682 38.44 37.4632 38.68 36.8732 38.74V38.665C37.2532 38.545 37.5732 38.34 37.8332 38.05Z" fill="#3B3B3B"/>
<path d="M49.659 29.016C50.1817 29.4427 50.443 30.0987 50.443 30.984V35.4C50.443 35.9653 50.6884 36.248 51.179 36.248C51.371 36.248 51.5737 36.2 51.787 36.104L51.819 36.168C51.4137 36.808 50.8537 37.128 50.139 37.128C49.7337 37.128 49.403 37 49.147 36.744C48.891 36.5093 48.731 36.1787 48.667 35.752C48.347 36.1573 47.979 36.4827 47.563 36.728C47.0937 36.9947 46.6244 37.128 46.155 37.128C45.579 37.128 45.083 36.9467 44.667 36.584C44.2617 36.2107 44.059 35.7307 44.059 35.144C44.059 34.5467 44.3044 34.0347 44.795 33.608C45.1897 33.2987 45.7177 33.0267 46.379 32.792L48.651 31.992V30.584C48.651 30.04 48.5657 29.6133 48.395 29.304C48.1497 28.8987 47.7924 28.696 47.323 28.696C46.8964 28.696 46.5817 28.8613 46.379 29.192C46.1977 29.448 46.107 29.8107 46.107 30.28C46.107 30.7067 46.155 31.032 46.251 31.256L45.179 31.4C44.9764 31.3467 44.811 31.224 44.683 31.032C44.5657 30.8507 44.507 30.6533 44.507 30.44C44.507 29.7893 44.875 29.272 45.611 28.888C46.2084 28.6 46.859 28.456 47.563 28.456C48.491 28.456 49.1897 28.6427 49.659 29.016ZM46.123 35.736C46.379 36.0453 46.7364 36.2 47.195 36.2C47.771 36.2 48.2564 36.0027 48.651 35.608V32.2L47.003 32.888C46.5764 33.08 46.2724 33.2933 46.091 33.528C45.867 33.816 45.755 34.1787 45.755 34.616C45.755 35.0853 45.8777 35.4587 46.123 35.736ZM55.5455 27C55.3322 27.2133 55.0602 27.32 54.7295 27.32C54.4095 27.32 54.1375 27.208 53.9135 26.984C53.7002 26.7707 53.5935 26.5093 53.5935 26.2C53.5935 25.88 53.7002 25.6133 53.9135 25.4C54.1375 25.176 54.4095 25.064 54.7295 25.064C55.0602 25.064 55.3375 25.176 55.5615 25.4C55.7749 25.6133 55.8815 25.88 55.8815 26.2C55.8815 26.5093 55.7695 26.776 55.5455 27ZM52.8255 29.288L55.6095 28.456H55.6735V36.088C55.6735 36.4293 55.7909 36.6373 56.0255 36.712C56.1429 36.776 56.3989 36.8133 56.7935 36.824V37H52.7775V36.824C53.1509 36.8133 53.4069 36.776 53.5455 36.712C53.7695 36.6373 53.8815 36.4293 53.8815 36.088V29.96L52.8255 29.352V29.288ZM58.031 25.304L60.815 24.472H60.879V36.088C60.879 36.4293 60.991 36.6373 61.215 36.712C61.3537 36.776 61.6097 36.8133 61.983 36.824V37H57.983V36.824C58.3564 36.8133 58.6124 36.776 58.751 36.712C58.975 36.6373 59.087 36.4293 59.087 36.088V25.976L58.031 25.368V25.304ZM66.751 37H64.623L61.071 32.52L63.759 29.944C63.855 29.8267 63.951 29.72 64.047 29.624C64.1537 29.5067 64.207 29.384 64.207 29.256C64.207 29.0853 64.0364 28.9573 63.695 28.872C63.5137 28.8187 63.279 28.7867 62.991 28.776V28.616H66.351V28.776C65.6684 28.8507 65.0444 29.1547 64.479 29.688L62.479 31.576L66.751 36.936V37ZM75.2908 28.472H75.3548L75.2908 30.232V35.656C75.2908 35.912 75.3228 36.0827 75.3868 36.168C75.4508 36.264 75.6054 36.3333 75.8508 36.376C76.1708 36.4187 76.3521 36.44 76.3948 36.44V36.584L73.4988 37.16H73.4348L73.4988 35.656C73.1361 36.0827 72.7308 36.4293 72.2828 36.696C71.7921 37.0053 71.2801 37.16 70.7468 37.16C70.0001 37.16 69.4294 36.92 69.0348 36.44C68.6828 35.992 68.5068 35.384 68.5068 34.616V30.008C68.5068 29.7947 68.4748 29.6293 68.4108 29.512C68.3361 29.3947 68.1868 29.304 67.9628 29.24C67.9414 29.2293 67.7654 29.192 67.4348 29.128V29L70.3148 28.472H70.3788L70.2988 30.296V34.392C70.2988 35.544 70.7948 36.12 71.7868 36.12C72.1068 36.12 72.4108 36.0667 72.6988 35.96C73.0401 35.8427 73.3068 35.6933 73.4988 35.512V30.008C73.4988 29.784 73.4668 29.6133 73.4028 29.496C73.3388 29.3893 73.1948 29.304 72.9708 29.24C72.9494 29.2293 72.7734 29.192 72.4428 29.128V29L75.2908 28.472ZM80.3827 36.632V39.464C80.3827 39.7093 80.4627 39.8853 80.6227 39.992C80.7187 40.0453 80.9107 40.0987 81.1987 40.152C81.22 40.152 81.2893 40.1573 81.4067 40.168C81.5347 40.1787 81.6733 40.1947 81.8227 40.216V40.392H77.4867V40.216C77.86 40.2053 78.116 40.168 78.2547 40.104C78.4787 40.0293 78.5907 39.8213 78.5907 39.48V29.96L77.5347 29.352V29.288L80.3827 28.456H80.4467L80.3827 30.024C80.7133 29.544 81.108 29.1653 81.5667 28.888C82.0893 28.6 82.6173 28.456 83.1507 28.456C84.164 28.456 84.9587 28.856 85.5347 29.656C86.004 30.3813 86.2387 31.2667 86.2387 32.312C86.2387 33.1653 86.0787 33.944 85.7587 34.648C85.4173 35.416 84.9213 36.0187 84.2707 36.456C83.6093 36.9253 82.8573 37.16 82.0147 37.16C81.7267 37.16 81.4387 37.1173 81.1507 37.032C80.8413 36.9467 80.5853 36.8133 80.3827 36.632ZM80.7187 36.232C80.996 36.6907 81.412 36.92 81.9667 36.92C82.5213 36.92 83.0173 36.6853 83.4547 36.216C83.796 35.8213 84.052 35.32 84.2227 34.712C84.3613 34.1573 84.4307 33.5973 84.4307 33.032C84.4307 32.0933 84.2707 31.3093 83.9507 30.68C83.5027 29.8907 82.852 29.496 81.9987 29.496C81.3373 29.496 80.7987 29.72 80.3827 30.168V34.792C80.3827 35.3573 80.4947 35.8373 80.7187 36.232Z" fill="#3B3B3B"/>
</svg>
